<?xml version="1.0" encoding="UTF-8"?>
<svg id="Layer_2" data-name="Layer 2" xmlns="http://www.w3.org/2000/svg" viewBox="0 0 442.34 412.46">
  <defs>
    <style>
      .cls-1 {
        fill: #fff;
      }
    </style>
  </defs>
  <g id="Layer_1-2" data-name="Layer 1">
    <path class="cls-1" d="M165.72,183.01c-4.26-7.06-8.55-13.96-12.65-20.98-13.82-23.65-26.74-47.75-35.58-73.79-3.64-10.72-6.8-21.63-5.88-33.13,1.49-18.73,15.19-27.82,33.21-22.24,2.65,.82,5.24,1.85,7.64,2.7,0-3.48-.07-6.84,.01-10.19,.45-19.27,14.54-29.43,33.05-23.87,9.91,2.98,18.67,8.2,27.01,14.13,22.09,15.72,41.25,34.69,59.7,54.41,6.16,6.58,12.1,13.35,18.37,20.3,3.99-2.94,7.9-5.81,11.8-8.71,15.45-11.47,30.88-22.97,46.34-34.43,13.75-10.21,30.97-7.99,41.27,5.68,15.57,20.66,30.97,41.45,46.23,62.34,10.01,13.71,7.48,30.47-6.04,40.67-18.48,13.94-37.14,27.66-55.72,41.48-.78,.58-1.52,1.19-2.56,2,.63,1.05,1.2,2.05,1.81,3.03,16.5,26.11,31.86,52.83,43.78,81.39,4.98,11.93,9.49,24.08,10.94,37.03,.55,4.92,.72,10.06-.04,14.92-2.27,14.58-14.1,22.44-28.55,19.31-3.99-.86-7.87-2.28-11.8-3.44,0,3.43,.1,6.86-.02,10.28-.36,10.24-3.76,18.93-13.78,23.21-7.94,3.39-16.03,1.91-23.8-1.18-12.97-5.17-24.12-13.29-34.85-22.01-23.38-19-44.01-40.78-63.79-63.41-1.71-1.95-3.42-3.9-5.32-6.06-4.76,3.5-9.38,6.87-13.98,10.29-46.16,34.29-92.3,68.6-138.48,102.86-12.18,9.04-26.05,9.27-36.81-.09-4.52-3.93-7.95-9.17-11.59-14.03-13.16-17.58-26.22-35.23-39.28-52.88-8.45-11.42-8.59-25.11,.09-35.85,2.82-3.48,6.62-6.26,10.26-8.97,49.02-36.47,98.09-72.87,147.15-109.29,.6-.44,1.16-.93,1.85-1.49Zm9.21,15.66c-.6,.42-1.57,1.07-2.51,1.77-49.47,36.74-98.94,73.48-148.4,110.22-7.24,5.38-8.08,10.73-2.65,18.08,14.73,19.93,29.5,39.82,44.3,59.7,5.39,7.24,10.8,7.96,18.11,2.53,41.89-31.1,83.77-62.2,125.66-93.31,8.45-6.28,16.9-12.56,24.88-18.49-19.8-26.84-39.45-53.48-59.39-80.51Zm127.87-95.03c20.04,26.86,39.89,53.47,59.81,80.17-.19,.07,.04,.04,.2-.08,18.85-13.99,37.76-27.91,56.53-42.01,6.17-4.63,6.69-10.4,1.97-16.76-14.83-19.99-29.67-39.97-44.53-59.93-5.54-7.45-10.87-8.22-18.29-2.72-14.93,11.06-29.85,22.14-44.77,33.22-3.82,2.83-7.62,5.68-10.91,8.13Zm61.16,260.11c.14-2.05,.32-3.11,.27-4.15-.42-9.69-3.55-18.73-6.88-27.7-.34-.93-1.37-1.66-2.19-2.34-19.9-16.49-37.96-34.85-55.13-54.12-4.03-4.52-8.03-9.06-12.18-13.74-7.43,5.52-14.61,10.87-21.9,16.29,.67,.9,1.01,1.45,1.44,1.92,12.98,13.91,25.67,28.1,39.05,41.62,13.16,13.3,27.22,25.69,43.39,35.34,4.31,2.57,9.05,4.44,14.12,6.88Zm41.39-31.49c-.2-3.52,.1-6-.53-8.22-2.87-10.1-5.29-20.4-9.17-30.12-10.4-26.08-24.48-50.29-39.27-74.09-1.23-1.98-2.5-3.94-3.89-6.11-7.6,5.65-14.79,10.99-21.93,16.29,.2,.43,.24,.53,.3,.62,17.05,27,33.15,54.52,45.57,84.03,.44,1.04,1.26,2.1,2.19,2.72,5.41,3.61,10.81,7.28,16.43,10.56,2.92,1.71,6.28,2.66,10.31,4.31ZM270.98,104.95c-.38-.63-.51-.93-.71-1.17-17.12-19.72-35.08-38.62-54.97-55.6-9.68-8.26-19.66-16.12-31.24-21.65-2.28-1.09-4.76-1.74-7.37-2.67-.17,1.21-.34,1.84-.33,2.47,.14,10.18,3.46,19.59,7,28.94,.28,.74,1.05,1.36,1.71,1.9,19.85,16.36,37.78,34.68,54.95,53.78,3.02,3.36,6.01,6.75,9.13,10.25,7.39-5.5,14.52-10.8,21.84-16.24ZM135.53,54.71c0,3.04-.33,5.04,.06,6.89,1.33,6.25,2.48,12.59,4.5,18.63,7.9,23.57,19.63,45.37,31.96,66.84,4.15,7.22,8.58,14.28,13.03,21.67,6.45-4.78,12.44-9.44,18.68-13.74,2.82-1.94,3.21-3.27,1.27-6.33-14.34-22.55-27.58-45.73-38.1-70.33-2.48-5.8-5.85-10.18-11.18-13.28-2.91-1.69-5.66-3.67-8.65-5.19-3.53-1.8-7.23-3.24-11.58-5.16Zm140.19,193.72c-19.94-27-39.64-53.68-59.46-80.53-6.79,5.05-14,10.41-21.35,15.88,18.38,28.09,38.18,54.72,59.35,80.6,7.33-5.45,14.55-10.81,21.46-15.95Zm67-49.74c-18.68-27.88-38.48-54.51-59.9-80.23-7.45,5.54-14.72,10.94-21.45,15.95,20.09,26.85,39.97,53.43,59.95,80.15,6.8-5.04,13.94-10.34,21.39-15.87Zm-41.39,30.68c-18.61-27.95-38.57-54.44-59.93-80.17-1.91,1.46-3.49,2.67-5.14,3.93,18.52,28.05,38.21,54.75,59.43,80.45,2-1.5,3.65-2.73,5.63-4.22Zm22.31,36.62c.19-.17,.38-.33,.58-.5-4.29-6.98-8.58-13.96-13-21.16-1.43,1.13-2.63,2.07-3.99,3.14,5.66,6.39,11.04,12.46,16.41,18.52Zm-93.81-130.46c-4.55-5.1-8.84-9.9-13.12-14.7-.18,.14-.36,.27-.54,.41,3.4,5.53,6.81,11.06,10.28,16.71,1.27-.91,2.13-1.53,3.38-2.42Z"/>
  </g>
</svg>