<?xml version="1.0" encoding="UTF-8"?>
<svg id="Layer_2" data-name="Layer 2" xmlns="http://www.w3.org/2000/svg" viewBox="0 0 143.41 143.01">
  <defs>
    <style>
      .cls-1 {
        fill: #fff;
      }

      .cls-2 {
        fill: #282f42;
      }

      .cls-3 {
        fill: none;
      }
    </style>
  </defs>
  <g id="Layer_2-2" data-name="Layer 2">
    <rect class="cls-1" x="5.34" y="28.67" width="132.67" height="86.17"/>
    <g>
      <path class="cls-3" d="M37.76,73.54c25.71,4.3,51.45,5.6,77.34,3.88-22.81-.79-45.51-2.32-69.73-7.66,6.02-1.45,10.24-2.47,14.47-3.49,.03-2.15-5.49,.17-7.33-.08-7.25,.97-14.52,3.43-21.51-1.37-2.73-1.88-6.51-3.16-6.52-6.79-.2-7.84,19.4-10.2,25.52-12.98-21.06,.08-70.67,12.95-22.77,26.27-4.73,2.84-11.86,3.32-11.44,9.44,.57,6.64,8.57,7.51,13.72,9.7,32.96,10.11,67.59,8.93,101.63,8.67-30.27-1.77-61.57-1.83-90.27-12.68-6.86-2.12-12.05-9.11-3.11-12.91Z"/>
      <path class="cls-2" d="M143.12,28.8c-3.97-15.22-13.63-24.78-28.82-28.8H28.82C12.05,4.3-.12,17.28,.04,35.23,0,59.37-.02,83.5,.02,107.64c.04,20.27,15.13,35.33,35.42,35.36,23.32,.03,46.65,0,69.97,0,19.35,0,30.79-8.32,36.8-26.74,2.59-28.22,.05-58.55,.91-87.46ZM29.51,90.46c-5.15-2.19-13.15-3.06-13.72-9.7-.42-6.12,6.71-6.6,11.44-9.44-47.9-13.32,1.71-26.19,22.77-26.27-6.12,2.78-25.72,5.14-25.52,12.98,.01,3.63,3.79,4.91,6.52,6.79,6.99,4.8,14.26,2.34,21.51,1.37,1.83,.25,7.36-2.07,7.33,.08-4.23,1.02-8.45,2.04-14.47,3.49,24.22,5.34,46.92,6.87,69.73,7.66-25.89,1.72-51.63,.42-77.34-3.88-8.94,3.8-3.75,10.79,3.11,12.91,28.7,10.85,60,10.91,90.27,12.68-34.04,.26-68.67,1.44-101.63-8.67Z"/>
    </g>
  </g>
</svg>