<svg width="1280" height="720" xmlns="http://www.w3.org/2000/svg" xmlns:xlink="http://www.w3.org/1999/xlink" overflow="hidden"><defs><clipPath id="clip0"><rect x="0" y="0" width="1280" height="720"/></clipPath></defs><g clip-path="url(#clip0)"><rect x="0" y="0" width="1280" height="720" fill="#FFFFFF"/><path d="M870.804 128.979C884.162 119.06 903.032 121.848 912.951 135.206L984.791 231.95C994.71 245.308 991.923 264.178 978.565 274.098L460.62 658.708C447.262 668.627 428.392 665.84 418.473 652.482L346.633 555.737C336.714 542.379 339.501 523.509 352.859 513.59Z" stroke="#2F528F" stroke-width="8" stroke-miterlimit="8" fill="none" fill-rule="evenodd"/><path d="M585.945 68.0909C614.806 46.6593 721.664 141.681 824.62 280.328 927.575 418.975 987.64 548.744 958.778 570.176 929.917 591.607 823.059 496.586 720.104 357.939 617.148 219.292 557.083 89.5225 585.945 68.0909Z" stroke="#2F528F" stroke-width="8" stroke-miterlimit="8" fill="none" fill-rule="evenodd"/><path d="M523.202 116.023C552.064 94.5912 658.922 189.613 761.877 328.26 864.832 466.907 924.897 596.676 896.036 618.108 867.175 639.539 760.316 544.517 657.361 405.871 554.406 267.224 494.341 137.454 523.202 116.023Z" stroke="#2F528F" stroke-width="8" stroke-miterlimit="8" fill="none" fill-rule="evenodd"/></g></svg>