<?xml version="1.0" encoding="UTF-8"?>
<svg id="Layer_2" data-name="Layer 2" xmlns="http://www.w3.org/2000/svg" viewBox="0 0 305.72 122.64">
  <defs>
    <style>
      .cls-1 {
        fill: #fff;
      }
    </style>
  </defs>
  <g id="Layer_1-2" data-name="Layer 1">
    <path id="Logo" class="cls-1" d="M46.59,62.57c-5.88-1.71-11.47-3.21-16.98-4.97-7.69-2.45-15.27-5.25-21.9-9.98-2.26-1.61-4.4-3.65-6-5.91-3.11-4.41-1.88-9.43,2.93-13.6,6.28-5.46,13.84-8.49,21.55-11.17,16.74-5.83,34.06-9.29,51.55-11.78C91.66,3.18,105.65,1.75,119.62,.09c1.26-.15,2.54-.13,3.83,.1-7.65,1.29-15.33,2.42-22.95,3.89-15.83,3.06-31.56,6.52-46.31,13.33-5.07,2.34-10.02,4.93-13.61,9.44-3.37,4.24-3.36,8.44,.04,12.62,3.86,4.74,9.17,7.38,14.54,9.9,2.09,.98,4.4,1.54,6.39,2.69,8.54,4.92,17.17,2.23,25.94,.84,13.45-2.13,26.99-3.78,40.5-5.53,4.41-.57,8.85-.84,13.31-.9-9.34,1.66-18.73,3.09-28.01,5.06-9.27,1.96-18.42,4.46-27.56,7.24,66.72,14.47,134.19,15.69,201.94,13.25-10.24,.84-20.47,2.02-30.73,2.46-19.89,.86-39.8,1.63-59.7,1.87-27.05,.33-54.08-.85-81.01-3.43-15.43-1.48-30.78-3.87-46.15-5.92-1.98-.26-3.71-.19-5.25,1.21-1.52,1.38-3.21,2.59-4.63,4.07-4.06,4.24-4.46,9.41-.32,13.53,3.16,3.15,6.93,5.91,10.88,7.99,11.77,6.2,24.6,9.42,37.5,12.26,27.37,6.01,55.13,9.02,83.05,10.94,34.13,2.34,68.27,2.52,102.44,1.31,3.6-.13,7.2-.29,10.81-.43,.16,0,.32,.08,1.15,.29-4.19,.43-7.74,.86-11.3,1.16-33.65,2.9-67.37,3.91-101.12,2.97-18.52-.52-37.06-1.48-55.52-3-28.21-2.32-56.26-5.96-83.58-13.79-9.89-2.83-19.68-6.02-28.19-12.11-9.42-6.75-9.56-14.8,.23-21.09,5.7-3.66,12.24-6.03,18.4-8.98,.53-.25,1.09-.43,1.94-.76Z"/>
  </g>
</svg>