<?xml version="1.0" encoding="UTF-8"?>
<svg id="Layer_2" data-name="Layer 2" xmlns="http://www.w3.org/2000/svg" viewBox="0 0 288.78 342.63">
  <defs>
    <style>
      .cls-1 {
        fill: #a6332d;
        stroke-width: 5px;
      }

      .cls-1, .cls-2 {
        stroke: #231f20;
        stroke-miterlimit: 10;
      }

      .cls-2 {
        fill: #fff;
        stroke-width: 4px;
      }
    </style>
  </defs>
  <g id="Layer_2-2" data-name="Layer 2">
    <g id="Layer_1-2" data-name="Layer 1-2">
      <path class="cls-1" d="M4.86,339.63C-11.19,331.85,56.73,2.5,144.39,2.5s155.58,332.08,139.53,337.13-61.53-65.69-139.53-72c-66.92-5.42-123.47,79.79-139.53,72h0Z"/>
      <g id="Layer_1-2-2" data-name="Layer 1-2">
        <path id="Logo" class="cls-2" d="M77.54,172.18c-4.04-1.17-7.87-2.2-11.66-3.41-5.28-1.68-10.48-3.6-15.03-6.85-1.55-1.11-3.02-2.51-4.12-4.06-2.13-3.03-1.29-6.47,2.01-9.34,4.31-3.75,9.5-5.83,14.79-7.67,11.49-4,23.38-6.38,35.39-8.09,9.56-1.36,19.16-2.34,28.75-3.48,.86-.1,1.74-.09,2.63,.07-5.25,.89-10.52,1.66-15.75,2.67-10.87,2.1-21.66,4.48-31.79,9.15-3.48,1.61-6.88,3.38-9.34,6.48-2.31,2.91-2.31,5.79,.03,8.66,2.65,3.25,6.29,5.07,9.98,6.8,1.43,.67,3.02,1.06,4.39,1.85,5.86,3.38,11.79,1.53,17.81,.58,9.23-1.46,18.53-2.59,27.8-3.8,3.03-.39,6.08-.58,9.14-.62-6.41,1.14-12.86,2.12-19.23,3.47-6.36,1.35-12.64,3.06-18.92,4.97,45.8,9.93,92.12,10.77,138.62,9.1-7.03,.58-14.05,1.39-21.09,1.69-13.65,.59-27.32,1.12-40.98,1.28-18.57,.23-37.12-.58-55.61-2.35-10.59-1.02-21.13-2.66-31.68-4.06-1.36-.18-2.55-.13-3.6,.83-1.04,.95-2.2,1.78-3.18,2.79-2.79,2.91-3.06,6.46-.22,9.29,2.17,2.16,4.76,4.06,7.47,5.48,8.08,4.26,16.89,6.47,25.74,8.42,18.79,4.13,37.84,6.19,57.01,7.51,23.43,1.61,46.86,1.73,70.32,.9,2.47-.09,4.94-.2,7.42-.3,.11,0,.22,.05,.79,.2-2.88,.3-5.31,.59-7.76,.8-23.1,1.99-46.25,2.68-69.41,2.04-12.71-.36-25.44-1.02-38.11-2.06-19.36-1.59-38.62-4.09-57.37-9.47-6.79-1.94-13.51-4.13-19.35-8.31-6.47-4.63-6.56-10.16,.16-14.48,3.91-2.51,8.4-4.14,12.63-6.16,.36-.17,.75-.3,1.33-.52h-.01Z"/>
      </g>
    </g>
  </g>
</svg>