<?xml version="1.0" encoding="UTF-8"?>
<svg id="Layer_2" data-name="Layer 2" xmlns="http://www.w3.org/2000/svg" viewBox="0 0 518.84 518.84">
  <defs>
    <style>
      .cls-1 {
        fill: #fff;
      }
    </style>
  </defs>
  <g id="Layer_2-2" data-name="Layer 2">
    <g id="Layer_1-2" data-name="Layer 1-2">
      <g>
        <g id="_Radial_Repeat_-3" data-name=" Radial Repeat -3">
          <rect class="cls-1" x="101.33" y="494.94" width="38.64" height="9.5" transform="translate(-372.37 354.16) rotate(-59.98)"/>
        </g>
        <g id="_Radial_Repeat_-4" data-name=" Radial Repeat -4">
          <rect class="cls-1" x="43.87" y="450.84" width="38.64" height="9.5" transform="translate(-303.54 178) rotate(-44.98)"/>
        </g>
        <g id="_Radial_Repeat_-5" data-name=" Radial Repeat -5">
          <rect class="cls-1" x="-.21" y="393.37" width="38.64" height="9.5" transform="translate(-196.38 62.82) rotate(-29.98)"/>
        </g>
        <g id="_Radial_Repeat_-9" data-name=" Radial Repeat -9">
          <rect class="cls-1" x="14.43" y="101.32" width="9.5" height="38.64" transform="translate(-94.87 76.89) rotate(-59.98)"/>
        </g>
        <g id="_Radial_Repeat_-10" data-name=" Radial Repeat -10">
          <rect class="cls-1" x="58.55" y="43.87" width="9.5" height="38.64" transform="translate(-26.14 63.23) rotate(-44.98)"/>
        </g>
        <g id="_Radial_Repeat_-11" data-name=" Radial Repeat -11">
          <rect class="cls-1" x="116.02" y="-.21" width="9.5" height="38.64" transform="translate(6.61 62.91) rotate(-29.98)"/>
        </g>
        <g id="_Radial_Repeat_-15" data-name=" Radial Repeat -15">
          <rect class="cls-1" x="378.9" y="14.46" width="38.64" height="9.5" transform="translate(182.36 354.39) rotate(-59.98)"/>
        </g>
        <g id="_Radial_Repeat_-16" data-name=" Radial Repeat -16">
          <rect class="cls-1" x="436.34" y="58.57" width="38.64" height="9.5" transform="translate(88.59 340.62) rotate(-44.98)"/>
        </g>
        <g id="_Radial_Repeat_-17" data-name=" Radial Repeat -17">
          <rect class="cls-1" x="480.42" y="116.03" width="38.64" height="9.5" transform="translate(6.51 265.88) rotate(-29.98)"/>
        </g>
        <g id="_Radial_Repeat_-21" data-name=" Radial Repeat -21">
          <rect class="cls-1" x="494.92" y="378.88" width="9.5" height="38.64" transform="translate(-95.1 631.62) rotate(-59.98)"/>
        </g>
        <g id="_Radial_Repeat_-22" data-name=" Radial Repeat -22">
          <rect class="cls-1" x="450.82" y="436.33" width="9.5" height="38.64" transform="translate(-188.76 455.37) rotate(-44.98)"/>
        </g>
        <g id="_Radial_Repeat_-23" data-name=" Radial Repeat -23">
          <rect class="cls-1" x="393.36" y="480.41" width="9.5" height="38.64" transform="translate(-196.45 265.8) rotate(-29.98)"/>
        </g>
      </g>
    </g>
  </g>
</svg>