<?xml version="1.0" encoding="UTF-8"?>
<svg id="Layer_2" data-name="Layer 2" xmlns="http://www.w3.org/2000/svg" viewBox="0 0 496.42 258.58">
  <defs>
    <style>
      .cls-1 {
        fill: #fff;
      }

      .cls-2 {
        stroke-linecap: round;
        stroke-linejoin: round;
      }

      .cls-2, .cls-3 {
        fill: none;
        stroke: #fff;
        stroke-width: 15px;
      }

      .cls-3 {
        stroke-miterlimit: 10;
      }
    </style>
  </defs>
  <g id="Layer_2-2" data-name="Layer 2">
    <g id="Layer_1-2" data-name="Layer 1-2">
      <line class="cls-2" x1="31.97" y1="251.08" x2="31.97" y2="119.08"/>
      <line class="cls-2" x1="206.19" y1="119.08" x2="206.19" y2="251.08"/>
      <line class="cls-2" x1="7.5" y1="119.08" x2="119.08" y2="7.5"/>
      <line class="cls-2" x1="119.08" y1="7.5" x2="230.67" y2="119.08"/>
      <line class="cls-2" x1="31.97" y1="251.08" x2="87.97" y2="251.08"/>
      <line class="cls-2" x1="206.19" y1="251.08" x2="150.19" y2="251.08"/>
      <line class="cls-2" x1="87.97" y1="251.08" x2="87.97" y2="200.86"/>
      <line class="cls-2" x1="150.19" y1="200.86" x2="87.97" y2="200.86"/>
      <line class="cls-2" x1="174.87" y1="44.67" x2="201.07" y2="44.22"/>
      <line class="cls-2" x1="200.75" y1="70.41" x2="200.31" y2="44.22"/>
      <g id="Layer_1-2-2" data-name="Layer 1-2">
        <path class="cls-1" d="M376.69,141.69c-1.86-3.07-3.72-6.05-5.46-9.09-5.97-10.21-11.56-20.69-15.41-31.95-1.56-4.63-2.95-9.35-2.56-14.34,.65-8.09,6.58-12.04,14.37-9.62,1.12,.35,2.25,.77,3.28,1.18,0-1.51-.04-2.95,0-4.42,.21-8.35,6.32-12.72,14.34-10.35,4.28,1.3,8.09,3.54,11.69,6.11,9.56,6.79,17.83,15.02,25.85,23.55,2.68,2.86,5.23,5.76,7.97,8.79,1.74-1.26,3.42-2.51,5.11-3.77,6.7-4.98,13.37-9.95,20.04-14.9,5.97-4.42,13.42-3.46,17.88,2.47,6.76,8.97,13.42,17.97,20,26.97,4.33,5.93,3.25,13.2-2.6,17.62-8,6.02-16.06,11.98-24.11,17.97-.35,.26-.65,.53-1.12,.86,.26,.47,.53,.91,.77,1.3,7.14,11.3,13.81,22.85,18.95,35.23,2.16,5.16,4.11,10.44,4.72,16.02,.21,2.12,.3,4.37,0,6.46-1,6.32-6.11,9.7-12.34,8.35-1.74-.39-3.42-1-5.11-1.47,0,1.47,.04,2.98,0,4.46-.18,4.42-1.65,8.18-5.97,10.04-3.42,1.47-6.93,.82-10.3-.53-5.63-2.25-10.44-5.76-15.11-9.53-10.12-8.23-19.04-17.65-27.62-27.44-.74-.86-1.47-1.68-2.3-2.63-2.07,1.51-4.07,2.98-6.05,4.46-20,14.84-39.95,29.69-59.96,44.53-5.28,3.9-11.3,4.02-15.93-.04-1.95-1.68-3.46-3.98-5.02-6.05-5.72-7.62-11.34-15.23-17-22.9-3.63-4.93-3.72-10.86,.04-15.55,1.21-1.51,2.86-2.72,4.46-3.9,21.21-15.79,42.46-31.55,63.68-47.31,.3-.12,.53-.35,.82-.61h0v.04Zm3.98,6.79c-.26,.18-.68,.47-1.09,.77-21.39,15.88-42.81,31.78-64.24,47.69-3.12,2.33-3.51,4.63-1.12,7.83,6.37,8.62,12.77,17.23,19.18,25.85,2.33,3.12,4.67,3.46,7.83,1.09,18.14-13.46,36.27-26.92,54.41-40.39,3.63-2.72,7.32-5.46,10.77-8-8.62-11.65-17.09-23.16-25.76-34.85h0l.02,.02Zm55.36-41.17c8.65,11.65,17.27,23.16,25.88,34.71-.09,.04,0,0,.09-.04,8.18-6.05,16.35-12.07,24.46-18.18,2.68-1.98,2.9-4.51,.86-7.26-6.4-8.65-12.86-17.32-19.27-25.93-2.39-3.25-4.72-3.54-7.91-1.18-6.46,4.81-12.95,9.56-19.39,14.37-1.65,1.26-3.28,2.47-4.72,3.51h0Zm26.5,112.63c.04-.86,.12-1.33,.12-1.77-.18-4.19-1.51-8.09-2.98-11.98-.12-.39-.61-.74-.95-1-8.62-7.14-16.44-15.11-23.85-23.43-1.74-1.95-3.46-3.93-5.28-5.93-3.21,2.39-6.32,4.72-9.48,7.05,.3,.39,.44,.65,.61,.82,5.63,6.02,11.12,12.16,16.88,18,5.72,5.76,11.77,11.12,18.79,15.28,1.91,1.04,3.93,1.86,6.14,2.95h-.02Zm17.92-13.63c-.09-1.51,.04-2.6-.21-3.54-1.26-4.37-2.3-8.83-3.98-13.04-4.51-11.3-10.6-21.78-17-32.08-.53-.86-1.09-1.68-1.68-2.63-3.28,2.42-6.4,4.76-9.48,7.05,.09,.18,.09,.21,.12,.26,7.35,11.69,14.34,23.58,19.74,36.36,.18,.44,.56,.91,.95,1.18,2.33,1.56,4.67,3.16,7.11,4.58,1.26,.74,2.68,1.12,4.46,1.86h-.02Zm-58.17-98.39c-.18-.26-.21-.39-.3-.53-7.4-8.53-15.2-16.7-23.81-24.07-4.19-3.6-8.53-6.97-13.51-9.35-1-.47-2.07-.74-3.21-1.18-.09,.53-.12,.77-.12,1.09,.04,4.42,1.51,8.49,3.04,12.51,.12,.3,.47,.61,.74,.82,8.62,7.11,16.35,15.02,23.76,23.28,1.3,1.47,2.6,2.95,3.93,4.42,3.25-2.39,6.32-4.67,9.48-7.02h0l.02,.02Zm-58.66-21.78c0,1.3-.12,2.16,.04,2.98,.56,2.72,1.09,5.46,1.95,8.05,3.42,10.21,8.49,19.65,13.84,28.92,1.77,3.12,3.72,6.19,5.63,9.39,2.77-2.07,5.37-4.07,8.09-5.93,1.21-.82,1.39-1.42,.56-2.72-6.19-9.79-11.95-19.78-16.49-30.43-1.09-2.51-2.56-4.42-4.84-5.76-1.26-.74-2.47-1.6-3.72-2.25-1.56-.77-3.16-1.42-5.07-2.25h0l.02-.02Zm60.69,83.84c-8.62-11.69-17.14-23.25-25.76-34.85-2.95,2.21-6.05,4.51-9.26,6.88,7.97,12.16,16.53,23.67,25.71,34.88,3.21-2.39,6.32-4.67,9.3-6.93h0l.02,.02Zm29.01-21.51c-8.09-12.07-16.67-23.58-25.93-34.71-3.25,2.39-6.37,4.72-9.3,6.93,8.7,11.65,17.32,23.11,25.97,34.71,2.95-2.25,6.05-4.54,9.26-6.93h0Zm-17.92,13.28c-8.05-12.07-16.7-23.55-25.93-34.71-.82,.65-1.51,1.18-2.21,1.68,8,12.16,16.53,23.72,25.71,34.8,.86-.61,1.6-1.12,2.42-1.77h.02Zm9.7,15.84s.18-.12,.26-.21c-1.86-3.04-3.72-6.05-5.63-9.18-.61,.47-1.12,.91-1.74,1.33,2.42,2.81,4.76,5.4,7.11,8.05Zm-40.64-56.48c-1.98-2.21-3.81-4.28-5.67-6.37-.09,.04-.18,.12-.21,.18,1.47,2.39,2.95,4.81,4.46,7.23,.53-.39,.91-.65,1.42-1.04h0Z"/>
      </g>
      <g>
        <line class="cls-3" x1="254.11" y1="151.71" x2="304.94" y2="151.71"/>
        <polygon class="cls-1" points="260.24 172.65 223.97 151.71 260.24 130.77 260.24 172.65"/>
        <polygon class="cls-1" points="298.81 172.65 335.08 151.71 298.81 130.77 298.81 172.65"/>
      </g>
      <line class="cls-2" x1="150.19" y1="251.08" x2="150.19" y2="200.86"/>
    </g>
  </g>
</svg>