<?xml version="1.0" encoding="UTF-8"?>
<svg id="Layer_2" data-name="Layer 2" xmlns="http://www.w3.org/2000/svg" viewBox="0 0 456.47 513.84">
  <defs>
    <style>
      .cls-1 {
        fill: #fff;
      }

      .cls-2 {
        fill: none;
        stroke: #fff;
        stroke-miterlimit: 10;
        stroke-width: 26px;
      }
    </style>
  </defs>
  <g id="Layer_2-2" data-name="Layer 2">
    <g id="Layer_1-2" data-name="Layer 1-2">
      <path class="cls-1" d="M165.38,284.14c-4.32-7.09-8.64-13.98-12.66-20.96-13.87-23.56-26.83-47.73-35.8-73.7-3.63-10.69-6.86-21.58-5.99-33.08,1.45-18.7,15.12-27.84,33.14-22.29,2.6,.79,5.2,1.79,7.61,2.68,0-3.5-.12-6.8-.03-10.2,.45-19.3,14.52-29.44,33.03-23.99,9.91,2.97,18.72,8.15,27.04,14.03,22.14,15.64,41.3,34.59,59.85,54.23,6.22,6.58,12.14,13.27,18.46,20.25,3.99-2.91,7.88-5.82,11.78-8.73,15.47-11.54,30.84-23.09,46.2-34.53,13.77-10.24,30.98-8.09,41.32,5.59,15.66,20.66,31.11,41.41,46.37,62.17,10.04,13.67,7.58,30.48-5.89,40.72-18.46,13.95-37.02,27.8-55.58,41.65-.8,.6-1.5,1.2-2.59,2.01,.6,1.1,1.21,2.1,1.81,2.99,16.57,26.05,32.05,52.71,44.03,81.28,5.03,11.89,9.57,24.07,11,36.97,.51,4.9,.73,10.1,.04,14.9-2.26,14.61-14.04,22.44-28.45,19.38-4-.89-7.91-2.28-11.81-3.37,0,3.4,.12,6.9,.03,10.3-.37,10.2-3.75,18.91-13.74,23.24-7.89,3.42-15.99,1.94-23.8-1.13-13.01-5.16-24.14-13.23-34.96-21.9-23.45-18.94-44.11-40.68-63.98-63.22-1.71-2-3.41-3.89-5.32-6.09-4.79,3.51-9.38,6.93-13.97,10.34-46.1,34.43-92.11,68.86-138.21,103.28-12.17,9.03-26.07,9.37-36.8,0-4.51-3.89-8.03-9.18-11.64-13.97-13.25-17.56-26.3-35.13-39.45-52.79-8.43-11.38-8.67-25.08,0-35.9,2.79-3.51,6.58-6.32,10.28-9.03,48.9-36.64,97.9-73.17,146.8-109.71,.7-.3,1.2-.8,1.9-1.41h0Zm9.24,15.67c-.6,.4-1.6,1.1-2.49,1.81-49.3,36.84-98.7,73.67-148.09,110.61-7.19,5.42-8.07,10.72-2.55,18.11,14.76,19.86,29.61,39.72,44.47,59.58,5.42,7.19,10.82,7.97,18.11,2.45,41.81-31.22,83.63-62.43,125.44-93.65,8.38-6.32,16.86-12.65,24.85-18.57-19.97-26.84-39.65-53.39-59.72-80.33h0Zm127.64-95.45c20.07,26.84,40.05,53.39,60.02,80.03-.2,.1,0,0,.2-.1,18.86-14.05,37.72-28,56.38-42.16,6.19-4.62,6.67-10.42,1.95-16.81-14.86-19.96-29.81-39.92-44.67-59.78-5.52-7.48-10.92-8.17-18.31-2.65-14.87,11.14-29.84,22.18-44.71,33.32-3.79,2.91-7.58,5.72-10.88,8.13h0Zm61.92,260.03c.09-2,.29-3.1,.29-4.1-.43-9.7-3.55-18.69-6.98-27.68-.3-.9-1.4-1.7-2.21-2.29-19.95-16.44-38.1-34.79-55.25-53.95-4.01-4.49-8.03-9.08-12.24-13.67-7.38,5.52-14.57,10.94-21.85,16.36,.7,.9,1,1.5,1.41,1.9,13.04,13.86,25.78,28.03,39.12,41.49,13.24,13.26,27.27,25.62,43.5,35.18,4.41,2.39,9.11,4.27,14.22,6.76h0Zm41.31-31.61c-.21-3.5,.08-6-.52-8.2-2.93-10.09-5.36-20.39-9.28-30.07-10.47-26.07-24.64-50.23-39.51-73.99-1.21-2-2.51-3.89-3.92-6.09-7.58,5.62-14.77,11.04-21.85,16.36,.2,.4,.2,.5,.3,.6,17.07,26.95,33.25,54.41,45.83,83.87,.4,1,1.31,2.1,2.21,2.69,5.41,3.59,10.82,7.27,16.43,10.55,2.9,1.69,6.21,2.58,10.31,4.27h0Zm-135.03-226.93c-.4-.6-.5-.9-.7-1.2-17.15-19.65-35.21-38.5-55.15-55.45-9.72-8.27-19.74-16.05-31.26-21.51-2.3-1.09-4.8-1.69-7.41-2.68-.2,1.2-.3,1.8-.29,2.5,.13,10.2,3.55,19.59,7.08,28.88,.3,.7,1.1,1.4,1.71,1.9,19.95,16.34,37.9,34.6,55.05,53.65,3.01,3.39,6.02,6.78,9.13,10.17,7.48-5.52,14.57-10.84,21.85-16.26h0Zm-135.64-49.92c0,3-.29,5,.12,6.9,1.32,6.3,2.53,12.59,4.55,18.59,7.97,23.58,19.73,45.35,32.19,66.71,4.12,7.19,8.64,14.28,13.06,21.66,6.39-4.82,12.37-9.43,18.66-13.75,2.79-1.91,3.19-3.31,1.28-6.3-14.36-22.56-27.73-45.62-38.29-70.19-2.52-5.79-5.93-10.18-11.24-13.27-2.9-1.69-5.71-3.68-8.61-5.18-3.6-1.79-7.31-3.28-11.71-5.17h0Zm140.74,193.31c-19.97-26.94-39.75-53.59-59.72-80.33-6.79,5.12-13.97,10.44-21.36,15.96,18.48,28.05,38.35,54.59,59.62,80.43,7.38-5.52,14.57-10.84,21.46-16.06h0Zm66.86-49.89c-18.78-27.85-38.65-54.39-60.12-80.03-7.48,5.52-14.67,10.94-21.46,16.06,20.17,26.84,40.15,53.29,60.22,80.03,6.79-5.22,13.97-10.54,21.36-16.06h0Zm-41.31,30.81c-18.68-27.85-38.75-54.29-60.12-80.03-1.9,1.51-3.49,2.71-5.09,3.91,18.58,28.05,38.35,54.69,59.62,80.23,2-1.41,3.69-2.61,5.59-4.12h0Zm22.5,36.54c.2-.2,.4-.3,.6-.5-4.32-6.99-8.64-13.98-13.06-21.16-1.4,1.1-2.59,2.11-3.99,3.11,5.62,6.48,11.03,12.47,16.45,18.55Zm-94.26-130.24c-4.61-5.09-8.83-9.88-13.14-14.66-.2,.1-.4,.3-.5,.4,3.42,5.49,6.83,11.08,10.35,16.67,1.2-.9,2.1-1.51,3.29-2.41h0Z"/>
    </g>
    <g>
      <line class="cls-2" x1="15.32" y1="63.41" x2="346.33" y2="63.41"/>
      <polygon class="cls-1" points="456.47 63.41 301.27 126.83 338.1 63.41 301.27 0 456.47 63.41"/>
    </g>
  </g>
</svg>