<?xml version="1.0" encoding="UTF-8"?>
<svg id="Layer_2" data-name="Layer 2" xmlns="http://www.w3.org/2000/svg" viewBox="0 0 736.54 412.44">
  <defs>
    <style>
      .cls-1, .cls-2 {
        fill: #fff;
      }

      .cls-2 {
        stroke: #fff;
        stroke-miterlimit: 10;
        stroke-width: 11px;
      }
    </style>
  </defs>
  <g id="Layer_2-2" data-name="Layer 2">
    <g id="Layer_1-2" data-name="Layer 1-2">
      <path class="cls-1" d="M459.94,182.99c-4.3-7.1-8.6-14-12.6-21-13.8-23.6-26.7-47.8-35.6-73.8-3.6-10.7-6.8-21.6-5.9-33.1,1.5-18.7,15.2-27.8,33.2-22.2,2.6,.8,5.2,1.8,7.6,2.7,0-3.5-.1-6.8,0-10.2,.5-19.3,14.6-29.4,33.1-23.9,9.9,3,18.7,8.2,27,14.1,22.1,15.7,41.2,34.7,59.7,54.4,6.2,6.6,12.1,13.3,18.4,20.3,4-2.9,7.9-5.8,11.8-8.7,15.5-11.5,30.9-23,46.3-34.4,13.8-10.2,31-8,41.3,5.7,15.6,20.7,31,41.5,46.2,62.3,10,13.7,7.5,30.5-6,40.7-18.5,13.9-37.1,27.7-55.7,41.5-.8,.6-1.5,1.2-2.6,2,.6,1.1,1.2,2.1,1.8,3,16.5,26.1,31.9,52.8,43.8,81.4,5,11.9,9.5,24.1,10.9,37,.5,4.9,.7,10.1,0,14.9-2.3,14.6-14.1,22.4-28.5,19.3-4-.9-7.9-2.3-11.8-3.4,0,3.4,.1,6.9,0,10.3-.4,10.2-3.8,18.9-13.8,23.2-7.9,3.4-16,1.9-23.8-1.2-13-5.2-24.1-13.3-34.9-22-23.4-19-44-40.8-63.8-63.4-1.7-2-3.4-3.9-5.3-6.1-4.8,3.5-9.4,6.9-14,10.3-46.2,34.3-92.3,68.6-138.5,102.9-12.2,9-26.1,9.3-36.8-.1-4.5-3.9-8-9.2-11.6-14-13.2-17.6-26.2-35.2-39.3-52.9-8.4-11.4-8.6-25.1,.1-35.9,2.8-3.5,6.6-6.3,10.3-9,49-36.5,98.1-72.9,147.1-109.3,.7-.3,1.2-.8,1.9-1.4h0Zm9.2,15.7c-.6,.4-1.6,1.1-2.5,1.8-49.4,36.7-98.9,73.4-148.4,110.2-7.2,5.4-8.1,10.7-2.6,18.1,14.7,19.9,29.5,39.8,44.3,59.7,5.4,7.2,10.8,8,18.1,2.5,41.9-31.1,83.8-62.2,125.7-93.3,8.4-6.3,16.9-12.6,24.9-18.5-19.9-26.9-39.5-53.5-59.5-80.5h0Zm127.9-95.1c20,26.9,39.9,53.5,59.8,80.2-.2,.1,0,0,.2-.1,18.9-14,37.8-27.9,56.5-42,6.2-4.6,6.7-10.4,2-16.8-14.8-20-29.7-40-44.5-59.9-5.5-7.5-10.9-8.2-18.3-2.7-14.9,11.1-29.9,22.1-44.8,33.2-3.8,2.9-7.6,5.7-10.9,8.1h0Zm61.2,260.2c.1-2,.3-3.1,.3-4.1-.4-9.7-3.5-18.7-6.9-27.7-.3-.9-1.4-1.7-2.2-2.3-19.9-16.5-38-34.9-55.1-54.1-4-4.5-8-9.1-12.2-13.7-7.4,5.5-14.6,10.9-21.9,16.3,.7,.9,1,1.5,1.4,1.9,13,13.9,25.7,28.1,39,41.6,13.2,13.3,27.2,25.7,43.4,35.3,4.4,2.4,9.1,4.3,14.2,6.8h0Zm41.4-31.5c-.2-3.5,.1-6-.5-8.2-2.9-10.1-5.3-20.4-9.2-30.1-10.4-26.1-24.5-50.3-39.3-74.1-1.2-2-2.5-3.9-3.9-6.1-7.6,5.6-14.8,11-21.9,16.3,.2,.4,.2,.5,.3,.6,17,27,33.1,54.5,45.6,84,.4,1,1.3,2.1,2.2,2.7,5.4,3.6,10.8,7.3,16.4,10.6,2.9,1.7,6.2,2.6,10.3,4.3h0Zm-134.4-227.3c-.4-.6-.5-.9-.7-1.2-17.1-19.7-35.1-38.6-55-55.6-9.7-8.3-19.7-16.1-31.2-21.6-2.3-1.1-4.8-1.7-7.4-2.7-.2,1.2-.3,1.8-.3,2.5,.1,10.2,3.5,19.6,7,28.9,.3,.7,1.1,1.4,1.7,1.9,19.9,16.4,37.8,34.7,54.9,53.8,3,3.4,6,6.8,9.1,10.2,7.5-5.5,14.6-10.8,21.9-16.2h0Zm-135.5-50.3c0,3-.3,5,.1,6.9,1.3,6.3,2.5,12.6,4.5,18.6,7.9,23.6,19.6,45.4,32,66.8,4.1,7.2,8.6,14.3,13,21.7,6.4-4.8,12.4-9.4,18.7-13.7,2.8-1.9,3.2-3.3,1.3-6.3-14.3-22.6-27.6-45.7-38.1-70.3-2.5-5.8-5.9-10.2-11.2-13.3-2.9-1.7-5.7-3.7-8.6-5.2-3.6-1.8-7.3-3.3-11.7-5.2h0Zm140.2,193.7c-19.9-27-39.6-53.7-59.5-80.5-6.8,5.1-14,10.4-21.4,15.9,18.4,28.1,38.2,54.7,59.4,80.6,7.4-5.5,14.6-10.8,21.5-16h0Zm67-49.7c-18.7-27.9-38.5-54.5-59.9-80.2-7.5,5.5-14.7,10.9-21.5,16,20.1,26.9,40,53.4,60,80.2,6.8-5.2,14-10.5,21.4-16h0Zm-41.4,30.7c-18.6-27.9-38.6-54.4-59.9-80.2-1.9,1.5-3.5,2.7-5.1,3.9,18.5,28.1,38.2,54.8,59.4,80.4,2-1.4,3.7-2.6,5.6-4.1h0Zm22.4,36.6c.2-.2,.4-.3,.6-.5-4.3-7-8.6-14-13-21.2-1.4,1.1-2.6,2.1-4,3.1,5.6,6.5,11,12.5,16.4,18.6Zm-93.9-130.5c-4.6-5.1-8.8-9.9-13.1-14.7-.2,.1-.4,.3-.5,.4,3.4,5.5,6.8,11.1,10.3,16.7,1.2-.9,2.1-1.5,3.3-2.4h0Z"/>
    </g>
    <line class="cls-2" x1="217" y1="5.82" x2="354" y2="5.82"/>
    <line class="cls-2" x1="148" y1="72.62" x2="334.5" y2="72.62"/>
    <line class="cls-2" x1="72.5" y1="139.42" x2="375.5" y2="139.42"/>
    <line class="cls-2" x1="102" y1="206.22" x2="346" y2="206.22"/>
    <line class="cls-2" y1="273.02" x2="277.25" y2="273.02"/>
    <line class="cls-2" x1="90.75" y1="339.82" x2="277.25" y2="339.82"/>
  </g>
</svg>