<?xml version="1.0" encoding="UTF-8"?>
<svg id="Layer_2" data-name="Layer 2" xmlns="http://www.w3.org/2000/svg" viewBox="0 0 143.41 143.02">
  <defs>
    <style>
      .cls-1 {
        fill: #282f42;
      }
    </style>
  </defs>
  <g id="Layer_2-2" data-name="Layer 2">
    <path class="cls-1" d="M28.82,0c28.49,0,56.99,0,85.48,0,15.19,4.02,24.85,13.58,28.82,28.8-.86,28.91,1.68,59.24-.91,87.46-6.01,18.42-17.45,26.74-36.8,26.74-23.32,0-46.65,.03-69.97,0C15.15,142.97,.06,127.91,.02,107.64-.02,83.5,0,59.37,.04,35.23-.12,17.28,12.05,4.3,28.82,0Zm31.02,66.29c.07-2.19-5.49,.15-7.33-.1-7.25,.97-14.52,3.43-21.51-1.37-2.73-1.88-6.51-3.16-6.52-6.79-.2-7.84,19.4-10.2,25.52-12.98-21.06,.08-70.67,12.95-22.77,26.27-4.73,2.84-11.86,3.32-11.44,9.44,.57,6.64,8.57,7.51,13.72,9.7,32.96,10.11,67.59,8.93,101.63,8.67-30.27-1.77-61.57-1.83-90.27-12.68-6.86-2.12-12.05-9.11-3.11-12.91,25.71,4.3,51.45,5.6,77.34,3.88-22.81-.79-45.51-2.32-69.73-7.66,6.02-1.45,10.24-2.47,14.47-3.49Z"/>
  </g>
</svg>