<?xml version="1.0" standalone="no"?>
<!DOCTYPE svg PUBLIC "-//W3C//DTD SVG 20010904//EN"
 "http://www.w3.org/TR/2001/REC-SVG-20010904/DTD/svg10.dtd">
<svg version="1.0" xmlns="http://www.w3.org/2000/svg"
 width="1280.000000pt" height="916.000000pt" viewBox="0 0 1280.000000 916.000000"
 preserveAspectRatio="xMidYMid meet">
<metadata>
Created by potrace 1.15, written by Peter Selinger 2001-2017
</metadata>
<g transform="translate(0.000000,916.000000) scale(0.100000,-0.100000)"
fill="#ffffff" stroke="none">
<path d="M7800 9154 c-36 -2 -173 -8 -305 -14 -633 -28 -1076 -108 -1330 -238
-104 -54 -169 -113 -184 -169 -6 -21 -18 -92 -26 -158 -26 -195 -74 -355 -148
-485 -219 -391 -608 -604 -1207 -665 -200 -21 -546 -31 -581 -17 -22 9 -29 23
-48 96 -21 80 -26 89 -77 135 -30 27 -80 62 -112 78 l-57 28 -570 0 c-657 0
-980 -18 -1280 -72 -106 -18 -144 -36 -212 -97 -61 -55 -69 -75 -82 -196 -7
-66 -15 -98 -26 -107 -16 -11 -81 -21 -275 -43 -435 -50 -729 -158 -830 -305
-55 -81 -106 -264 -140 -500 -47 -340 -185 -2302 -164 -2336 6 -11 4501 -12
4507 -1 3 4 15 63 27 132 203 1182 1052 2174 2190 2560 536 182 1136 222 1695
114 690 -134 1341 -501 1808 -1019 418 -465 691 -1014 802 -1613 14 -73 27
-138 30 -143 6 -9 1567 -14 1576 -5 2 2 -1 145 -8 318 -30 811 -104 1465 -213
1884 -100 385 -177 500 -450 672 -251 158 -540 271 -967 375 -238 59 -356 102
-476 175 -95 57 -211 162 -279 251 -134 177 -227 464 -228 704 -1 117 -17 217
-42 254 -13 19 -50 55 -83 80 -224 172 -716 276 -1465 312 -238 12 -676 20
-770 15z m3763 -2457 c180 -82 281 -290 233 -477 -81 -314 -465 -421 -694
-193 -216 215 -130 581 160 685 80 28 223 21 301 -15z"/>
<path d="M7800 6404 c-483 -41 -825 -138 -1182 -335 -713 -393 -1224 -1085
-1382 -1871 -42 -213 -50 -302 -50 -548 0 -300 25 -490 100 -757 284 -1015
1150 -1793 2189 -1967 296 -50 634 -50 930 0 1039 174 1905 952 2189 1967 75
267 100 457 100 757 0 364 -49 642 -171 970 -250 671 -794 1249 -1451 1544
-254 114 -555 196 -822 225 -107 12 -382 21 -450 15z"/>
<path d="M11220 3362 c0 -26 -33 -253 -50 -343 -185 -980 -849 -1857 -1749
-2309 -476 -238 -953 -351 -1486 -352 -548 0 -1022 112 -1503 357 -916 465
-1562 1329 -1746 2335 -13 74 -27 167 -31 205 -4 39 -9 78 -11 88 -5 16 -122
17 -2269 17 l-2263 0 -7 -157 c-5 -87 -8 -448 -9 -803 0 -512 3 -698 17 -905
44 -667 83 -1010 134 -1185 55 -190 114 -239 348 -289 l99 -21 5389 0 5388 0
172 35 c573 118 921 271 1013 447 24 46 42 185 63 488 29 420 40 648 51 1035
6 187 15 484 20 660 5 176 10 407 10 513 l0 192 -790 0 c-434 0 -790 -4 -790
-8z"/>
</g>
</svg>
