<?xml version="1.0" encoding="UTF-8"?>
<svg id="Layer_2" data-name="Layer 2" xmlns="http://www.w3.org/2000/svg" viewBox="0 0 41.32 51.4">
  <defs>
    <style>
      .cls-1 {
        fill: #fff;
      }
    </style>
  </defs>
  <g id="Layer_1-2" data-name="Layer 1">
    <path class="cls-1" d="M20.31,51.4c-3.98,0-7.8-.53-11.47-1.6-3.67-1.06-6.62-2.45-8.84-4.15l3.91-8.66c2.08,1.52,4.59,2.76,7.53,3.73,2.93,.97,5.89,1.46,8.88,1.46,2.27,0,4.11-.24,5.5-.71,1.4-.47,2.43-1.1,3.09-1.88,.66-.78,.99-1.69,.99-2.73,0-1.32-.52-2.38-1.56-3.16-1.04-.78-2.43-1.42-4.15-1.92-1.73-.5-3.61-.97-5.64-1.42-2.04-.45-4.08-.99-6.14-1.63s-3.95-1.49-5.68-2.56c-1.73-1.06-3.1-2.46-4.12-4.19-1.02-1.73-1.53-3.89-1.53-6.5,0-2.84,.76-5.43,2.27-7.77,1.51-2.34,3.82-4.21,6.92-5.61C13.36,.7,17.25,0,21.94,0c3.12,0,6.21,.38,9.27,1.14,3.05,.76,5.72,1.85,7.99,3.27l-3.62,8.66c-2.23-1.28-4.52-2.24-6.89-2.88-2.37-.64-4.64-.96-6.82-.96s-4.09,.25-5.47,.75c-1.37,.5-2.38,1.17-3.02,2.02-.64,.85-.96,1.8-.96,2.84,0,1.33,.52,2.39,1.56,3.19,1.04,.81,2.41,1.43,4.12,1.88,1.7,.45,3.6,.9,5.68,1.35,2.08,.45,4.14,1.01,6.18,1.67,2.03,.66,3.9,1.5,5.61,2.52,1.7,1.02,3.09,2.39,4.15,4.12,1.06,1.73,1.6,3.87,1.6,6.43,0,2.79-.77,5.35-2.31,7.67-1.54,2.32-3.87,4.19-6.99,5.61-3.12,1.42-7.03,2.13-11.71,2.13Z"/>
  </g>
</svg>