<?xml version="1.0" encoding="utf-8"?>
<!-- Generator: Adobe Illustrator 26.4.1, SVG Export Plug-In . SVG Version: 6.00 Build 0)  -->
<svg version="1.1" id="Layer_2_00000060709477462004317730000009797535208736155558_"
	 xmlns="http://www.w3.org/2000/svg" xmlns:xlink="http://www.w3.org/1999/xlink" x="0px" y="0px" viewBox="0 0 442.3 412.5"
	 style="enable-background:new 0 0 442.3 412.5;" xml:space="preserve">
<style type="text/css">
	.st0{fill:#FFFFFF;}
</style>
<g id="Layer_1-2">
	<path class="st0" d="M165.7,183c-4.3-7.1-8.6-14-12.6-21c-13.8-23.6-26.7-47.8-35.6-73.8c-3.6-10.7-6.8-21.6-5.9-33.1
		c1.5-18.7,15.2-27.8,33.2-22.2c2.6,0.8,5.2,1.8,7.6,2.7c0-3.5-0.1-6.8,0-10.2C152.9,6.1,167-4,185.5,1.5c9.9,3,18.7,8.2,27,14.1
		c22.1,15.7,41.2,34.7,59.7,54.4c6.2,6.6,12.1,13.3,18.4,20.3c4-2.9,7.9-5.8,11.8-8.7c15.5-11.5,30.9-23,46.3-34.4
		c13.8-10.2,31-8,41.3,5.7c15.6,20.7,31,41.5,46.2,62.3c10,13.7,7.5,30.5-6,40.7c-18.5,13.9-37.1,27.7-55.7,41.5
		c-0.8,0.6-1.5,1.2-2.6,2c0.6,1.1,1.2,2.1,1.8,3c16.5,26.1,31.9,52.8,43.8,81.4c5,11.9,9.5,24.1,10.9,37c0.5,4.9,0.7,10.1,0,14.9
		c-2.3,14.6-14.1,22.4-28.5,19.3c-4-0.9-7.9-2.3-11.8-3.4c0,3.4,0.1,6.9,0,10.3c-0.4,10.2-3.8,18.9-13.8,23.2
		c-7.9,3.4-16,1.9-23.8-1.2c-13-5.2-24.1-13.3-34.9-22c-23.4-19-44-40.8-63.8-63.4c-1.7-2-3.4-3.9-5.3-6.1c-4.8,3.5-9.4,6.9-14,10.3
		c-46.2,34.3-92.3,68.6-138.5,102.9c-12.2,9-26.1,9.3-36.8-0.1c-4.5-3.9-8-9.2-11.6-14c-13.2-17.6-26.2-35.2-39.3-52.9
		c-8.4-11.4-8.6-25.1,0.1-35.9c2.8-3.5,6.6-6.3,10.3-9c49-36.5,98.1-72.9,147.1-109.3C164.5,184.1,165,183.6,165.7,183L165.7,183z
		 M174.9,198.7c-0.6,0.4-1.6,1.1-2.5,1.8C123,237.2,73.5,273.9,24,310.7c-7.2,5.4-8.1,10.7-2.6,18.1c14.7,19.9,29.5,39.8,44.3,59.7
		c5.4,7.2,10.8,8,18.1,2.5c41.9-31.1,83.8-62.2,125.7-93.3c8.4-6.3,16.9-12.6,24.9-18.5C214.5,252.3,194.9,225.7,174.9,198.7
		L174.9,198.7z M302.8,103.6c20,26.9,39.9,53.5,59.8,80.2c-0.2,0.1,0,0,0.2-0.1c18.9-14,37.8-27.9,56.5-42c6.2-4.6,6.7-10.4,2-16.8
		c-14.8-20-29.7-40-44.5-59.9c-5.5-7.5-10.9-8.2-18.3-2.7c-14.9,11.1-29.9,22.1-44.8,33.2C309.9,98.4,306.1,101.2,302.8,103.6
		L302.8,103.6z M364,363.8c0.1-2,0.3-3.1,0.3-4.1c-0.4-9.7-3.5-18.7-6.9-27.7c-0.3-0.9-1.4-1.7-2.2-2.3
		c-19.9-16.5-38-34.9-55.1-54.1c-4-4.5-8-9.1-12.2-13.7c-7.4,5.5-14.6,10.9-21.9,16.3c0.7,0.9,1,1.5,1.4,1.9
		c13,13.9,25.7,28.1,39,41.6c13.2,13.3,27.2,25.7,43.4,35.3C354.2,359.4,358.9,361.3,364,363.8L364,363.8z M405.4,332.3
		c-0.2-3.5,0.1-6-0.5-8.2c-2.9-10.1-5.3-20.4-9.2-30.1c-10.4-26.1-24.5-50.3-39.3-74.1c-1.2-2-2.5-3.9-3.9-6.1
		c-7.6,5.6-14.8,11-21.9,16.3c0.2,0.4,0.2,0.5,0.3,0.6c17,27,33.1,54.5,45.6,84c0.4,1,1.3,2.1,2.2,2.7c5.4,3.6,10.8,7.3,16.4,10.6
		C398,329.7,401.3,330.6,405.4,332.3L405.4,332.3z M271,105c-0.4-0.6-0.5-0.9-0.7-1.2c-17.1-19.7-35.1-38.6-55-55.6
		c-9.7-8.3-19.7-16.1-31.2-21.6c-2.3-1.1-4.8-1.7-7.4-2.7c-0.2,1.2-0.3,1.8-0.3,2.5c0.1,10.2,3.5,19.6,7,28.9
		c0.3,0.7,1.1,1.4,1.7,1.9c19.9,16.4,37.8,34.7,54.9,53.8c3,3.4,6,6.8,9.1,10.2C256.6,115.7,263.7,110.4,271,105L271,105z
		 M135.5,54.7c0,3-0.3,5,0.1,6.9c1.3,6.3,2.5,12.6,4.5,18.6c7.9,23.6,19.6,45.4,32,66.8c4.1,7.2,8.6,14.3,13,21.7
		c6.4-4.8,12.4-9.4,18.7-13.7c2.8-1.9,3.2-3.3,1.3-6.3c-14.3-22.6-27.6-45.7-38.1-70.3c-2.5-5.8-5.9-10.2-11.2-13.3
		c-2.9-1.7-5.7-3.7-8.6-5.2C143.6,58.1,139.9,56.6,135.5,54.7L135.5,54.7z M275.7,248.4c-19.9-27-39.6-53.7-59.5-80.5
		c-6.8,5.1-14,10.4-21.4,15.9c18.4,28.1,38.2,54.7,59.4,80.6C261.6,258.9,268.8,253.6,275.7,248.4L275.7,248.4z M342.7,198.7
		c-18.7-27.9-38.5-54.5-59.9-80.2c-7.5,5.5-14.7,10.9-21.5,16c20.1,26.9,40,53.4,60,80.2C328.1,209.5,335.3,204.2,342.7,198.7
		L342.7,198.7z M301.3,229.4c-18.6-27.9-38.6-54.4-59.9-80.2c-1.9,1.5-3.5,2.7-5.1,3.9c18.5,28.1,38.2,54.8,59.4,80.4
		C297.7,232.1,299.4,230.9,301.3,229.4L301.3,229.4z M323.7,266c0.2-0.2,0.4-0.3,0.6-0.5c-4.3-7-8.6-14-13-21.2
		c-1.4,1.1-2.6,2.1-4,3.1C312.9,253.9,318.3,259.9,323.7,266z M229.8,135.5c-4.6-5.1-8.8-9.9-13.1-14.7c-0.2,0.1-0.4,0.3-0.5,0.4
		c3.4,5.5,6.8,11.1,10.3,16.7C227.7,137,228.6,136.4,229.8,135.5L229.8,135.5z"/>
</g>
</svg>
