<?xml version="1.0" encoding="UTF-8"?>
<svg id="Layer_2" data-name="Layer 2" xmlns="http://www.w3.org/2000/svg" viewBox="0 0 432.98 636.14">
  <defs>
    <style>
      .cls-1, .cls-2 {
        fill: #fff;
      }

      .cls-2 {
        stroke: #fff;
        stroke-miterlimit: 10;
        stroke-width: 11px;
      }
    </style>
  </defs>
  <g id="Layer_2-2" data-name="Layer 2">
    <g id="Layer_1-2" data-name="Layer 1-2">
      <path class="cls-1" d="M145.74,257.8c-8.26-.78-16.37-1.43-24.37-2.39-27.18-2.97-54.3-7.03-80.48-15.37-10.74-3.48-21.4-7.41-30.1-14.98-14.13-12.34-13.27-28.77,1.95-39.89,2.19-1.61,4.54-3.1,6.7-4.5-2.81-2.08-5.52-3.97-8.19-6.08-15.2-11.9-14.92-29.24,.52-40.82,8.31-6.16,17.73-10.14,27.41-13.29,25.78-8.4,52.41-12.42,79.26-15.54,8.99-1.05,17.89-1.8,27.27-2.69,.05-4.94,.05-9.8,.04-14.66,0-19.3-.07-38.52-.05-57.68,.03-17.16,12.04-29.66,29.18-29.78,25.92-.2,51.8-.18,77.56,0,16.96,.13,28.97,12.15,29.12,29.06,.14,23.14,.15,46.3,.15,69.46,0,1,.07,1.92,.06,3.28,1.24,.17,2.4,.29,3.48,.34,30.79,2.3,61.41,5.83,91.47,13.31,12.54,3.07,25.02,6.73,36.21,13.29,4.23,2.52,8.53,5.45,11.97,8.88,10.36,10.54,9.59,24.67-1.48,34.39-3.11,2.68-6.55,4.98-9.76,7.45,2.73,2.03,5.6,4.03,8.27,6.14,7.95,6.4,12.92,14.31,10.41,24.9-1.98,8.37-8.01,13.98-15.14,18.4-11.92,7.34-25.04,11.43-38.46,14.93-29.2,7.48-58.98,11.04-88.93,13.48-2.62,.17-5.16,.41-8.06,.62-.05,5.94-.06,11.66-.07,17.38,.03,57.54,.12,115,.14,172.54-.04,15.16-8.08,26.5-22,29.5-5.81,1.29-12.16,.95-18.16,.98-22,.12-43.88,.07-65.9,.05-14.16-.04-25.28-8.04-28.78-21.47-1.14-4.33-1.13-9.05-1.09-13.63-.13-61.1-.11-122.22-.16-183.26,.18-.74,.07-1.44,0-2.36h0Zm18.09,1.96c-.04,.72-.07,1.94-.04,3.08,.05,61.54,.04,123.16,.11,184.84,.05,9,3.77,12.88,12.99,12.87,24.74,.05,49.54,.01,74.34-.02,9-.05,12.86-3.91,12.79-13.05-.02-52.18-.04-104.36-.06-156.54-.06-10.5-.05-21.08-.03-31.02-33.46-.04-66.5-.14-100.1-.16h0Zm-.19-159.38c33.52-.04,66.74-.18,100.04-.26-.04,.22,0,0,.04-.22,.01-23.52,.11-46.98-.08-70.4,0-7.72-4.36-11.58-12.3-11.61-24.88-.03-49.82,.03-74.62,.06-9.3-.05-13.08,3.87-13.07,13.09,.04,18.58-.06,37.18-.02,55.76,.07,4.78,.05,9.5,.01,13.58h0Zm245.45,105.85c-1.55-1.27-2.31-2.09-3.11-2.68-8.03-5.46-17.1-8.33-26.36-10.96-.9-.3-2.2,.11-3.16,.4-25.11,6.15-50.67,9.73-76.28,12.03-6,.53-12.07,1-18.27,1.64,0,9.22,.06,18.22,.05,27.3,1.14-.03,1.8,.09,2.36,0,18.91-2.16,37.88-3.9,56.65-6.54,18.55-2.68,36.85-6.54,54.21-13.83,4.55-2.1,8.87-4.75,13.92-7.35h0Zm-.64-52.02c-2.93-1.92-4.76-3.65-6.88-4.48-9.84-3.69-19.54-7.9-29.66-10.54-27.16-7.19-55-10.29-82.93-12.58-2.32-.23-4.62-.32-7.22-.5-.03,9.44,.02,18.44,.05,27.3,.44,.08,.52,.14,.66,.12,31.81,2.43,63.49,5.88,94.63,13.41,1.04,.27,2.46,.21,3.48-.16,6.11-2.19,12.3-4.33,18.28-6.86,3.09-1.32,5.78-3.43,9.59-5.71h0Zm-262.63-27.45c-.72-.04-1.02-.13-1.38-.15-26.01,2-51.91,5.2-77.42,11.05-12.44,2.85-24.67,6.23-35.94,12.19-2.25,1.19-4.22,2.84-6.58,4.34,.84,.88,1.27,1.31,1.83,1.73,8.25,6,17.83,8.86,27.38,11.59,.74,.18,1.78-.05,2.54-.23,25.03-6.21,50.39-9.69,75.92-12.05,4.52-.38,9.04-.77,13.61-1.23,.05-9.3,.02-18.16,.03-27.24h0ZM24.7,205.63c2.41,1.79,3.84,3.22,5.6,4.03,5.83,2.71,11.61,5.5,17.62,7.47,23.66,7.71,48.14,11.3,72.72,14.09,8.23,1,16.61,1.61,25.17,2.49-.04-8-.16-15.56,.14-23.18,.14-3.38-.74-4.54-4.29-4.8-26.67-1.98-53.15-5.06-79.16-11.28-6.15-1.45-11.71-1.34-17.35,1.07-3.09,1.32-6.37,2.37-9.3,3.81-3.59,1.82-7,3.9-11.15,6.3h0Zm239.1,2.78c-33.54-.1-66.72-.18-100.1-.16,.05,8.5,.01,17.44,.02,26.66,33.53,1.96,66.69,1.9,100.12,.3,0-9.22,.02-18.16-.04-26.8h0Zm0-83.42c-33.55-1.6-66.71-1.54-100.1,.34-.05,9.3,0,18.3,.04,26.8,33.58-.12,66.72-.32,100.16-.42-.13-8.56-.09-17.5-.1-26.72h0Zm0,51.54c-33.49-1.68-66.69-1.4-100.1,.34,.07,2.42,.08,4.42,.09,6.42,33.59,1.88,66.77,1.96,99.96,.18,.07-2.44,.12-4.52,.04-6.94h0Zm42.74,3.81c-.04-.28,0-.5-.04-.78-8.18-.72-16.37-1.43-24.77-2.19,.05,1.78,.14,3.34,.11,5.06,8.56-.63,16.59-1.39,24.71-2.09Zm-160.75-2.32c-6.84,.66-13.19,1.17-19.61,1.77-.04,.22,0,.5,.02,.64,6.44,.55,12.97,1.15,19.55,1.68,0-1.5,.05-2.58,.04-4.08h0Z"/>
    </g>
    <line class="cls-2" x1="15.65" y1="443.75" x2="15.65" y2="306.75"/>
    <line class="cls-2" x1="76.05" y1="537" x2="76.05" y2="350.5"/>
    <line class="cls-2" x1="135.96" y1="601.32" x2="135.96" y2="472.68"/>
    <line class="cls-2" x1="294.12" y1="601.32" x2="294.12" y2="472.68"/>
    <line class="cls-2" x1="341.05" y1="520.5" x2="341.05" y2="334"/>
    <line class="cls-2" x1="419.05" y1="493.25" x2="419.05" y2="306.75"/>
    <line class="cls-2" x1="216.49" y1="636.14" x2="216.49" y2="507.5"/>
  </g>
</svg>