<?xml version="1.0" standalone="no"?>
<!DOCTYPE svg PUBLIC "-//W3C//DTD SVG 20010904//EN"
 "http://www.w3.org/TR/2001/REC-SVG-20010904/DTD/svg10.dtd">
<svg version="1.0" xmlns="http://www.w3.org/2000/svg"
 width="1280.000000pt" height="1094.000000pt" viewBox="0 0 1280.000000 1094.000000"
 preserveAspectRatio="xMidYMid meet">
<metadata>
Created by potrace 1.15, written by Peter Selinger 2001-2017
</metadata>
<g transform="translate(0.000000,1094.000000) scale(0.100000,-0.100000)"
fill="#FFFFFF" stroke="none">
<path d="M7885 10934 c-406 -40 -717 -129 -1035 -295 -233 -123 -415 -255
-614 -449 -274 -266 -484 -582 -621 -935 -49 -124 -108 -329 -126 -434 -6 -36
-14 -69 -18 -73 -3 -4 -67 -19 -141 -33 -74 -14 -145 -28 -157 -30 -18 -4 -30
8 -76 77 -207 318 -511 589 -857 763 -408 206 -911 274 -1379 189 -848 -156
-1550 -842 -1726 -1688 -68 -328 -59 -689 24 -1014 179 -696 737 -1288 1420
-1508 81 -26 152 -48 159 -50 9 -2 12 -36 12 -124 l0 -120 -224 0 c-145 0
-226 4 -228 10 -2 6 -117 53 -257 105 l-254 95 -188 0 -187 0 40 -82 c22 -46
150 -312 285 -593 135 -280 248 -514 253 -518 4 -5 54 4 111 20 l104 28 60 98
60 97 212 0 213 0 0 -1365 0 -1365 348 0 348 0 -40 -300 c-37 -277 -42 -301
-61 -306 -11 -2 -386 -74 -833 -159 l-812 -155 -183 94 -182 94 -663 -128
c-364 -70 -665 -129 -667 -132 -4 -3 84 -739 89 -745 1 -1 285 52 631 117 347
66 648 123 670 126 35 6 59 25 200 165 l160 158 395 86 c1213 262 1401 303
1407 309 4 4 123 697 133 773 0 2 1495 4 3323 5 l3322 3 0 2263 0 2263 -287
-1 c-159 0 -288 3 -287 7 0 4 37 39 81 78 311 268 589 694 733 1120 232 691
157 1485 -200 2115 -408 719 -1101 1197 -1920 1321 -124 19 -470 33 -570 23z
m-2095 -3943 c0 -18 170 -263 252 -363 47 -57 144 -160 217 -230 l132 -127
-680 -1 c-375 0 -681 1 -681 3 0 2 29 47 65 101 99 151 190 338 242 498 18 54
-13 42 263 97 161 32 190 35 190 22z m3862 -4347 c158 -53 208 -252 96 -378
-114 -130 -333 -90 -394 71 -24 61 -15 156 19 210 60 95 172 134 279 97z"/>
<path d="M12120 6144 l-664 -404 -523 0 -523 0 2 -1007 3 -1008 527 -3 527 -2
660 -400 c363 -220 662 -400 666 -400 3 0 5 817 5 1815 0 998 -3 1815 -7 1814
-5 -1 -307 -183 -673 -405z"/>
</g>
</svg>
